<?xml version="1.0" encoding="utf-8"?>
<!-- Generator: Adobe Illustrator 27.0.0, SVG Export Plug-In . SVG Version: 6.00 Build 0)  -->
<svg version="1.1" id="Capa_1" xmlns="http://www.w3.org/2000/svg" xmlns:xlink="http://www.w3.org/1999/xlink" x="0px" y="0px"
	 viewBox="0 0 417 107" style="enable-background:new 0 0 417 107;" xml:space="preserve">
<style type="text/css">
	.st0{fill-rule:evenodd;clip-rule:evenodd;fill:#FFD55E;}
	.st1{fill-rule:evenodd;clip-rule:evenodd;fill:#002C59;}
	.st2{fill-rule:evenodd;clip-rule:evenodd;fill:#FFFFFF;}
	.st3{fill-rule:evenodd;clip-rule:evenodd;fill:#AFAFAF;}
	.st4{display:none;fill-rule:evenodd;clip-rule:evenodd;fill:#FFD55E;}
	.st5{fill:#FFD55E;}
	.st6{display:none;fill-rule:evenodd;clip-rule:evenodd;fill:#002C59;}
	.st7{enable-background:new    ;}
	.st8{fill:#002C59;}
	.st9{display:none;fill:#FFD55E;enable-background:new    ;}
	.st10{font-family:'Moderna';}
	.st11{font-size:47.9782px;}
	.st12{fill:#FFFFFF;}
</style>
<g id="Tablet_x2B_">
	<g id="_x30_0---App---Tablet_x2B_" transform="translate(-177.000000, -351.000000)">
		<g id="Group-4" transform="translate(175.000000, 348.000000)">
			<g id="Tarjetas-molonas">
				<g id="Group-2">
					
						<g id="Group" transform="translate(63.191223, 54.437060) rotate(-10.000000) translate(-63.191223, -54.437060) translate(7.318166, 11.294573)">
						<path id="Path" class="st0" d="M101.3,2.3c2.9,0,5.3,1,7.3,3s3,4.4,3,7.3l0,62c0,2.9-1,5.3-3,7.3s-4.4,3-7.3,3l-89.5,0
							c-2.9,0-5.3-1-7.3-3s-3-4.4-3-7.3l0-62c0-2.9,1-5.3,3-7.3s4.4-3,7.3-3L101.3,2.3z"/>
						<path id="Path-Copy" class="st1" d="M100.1,0.6c2.9,0,5.3,1,7.3,3s3,4.4,3,7.3l0,62c0,2.9-1,5.3-3,7.3s-4.4,3-7.3,3l-89.5,0
							c-2.9,0-5.3-1-7.3-3c-2-2-3-4.4-3-7.3l0-62c0-2.9,1-5.3,3-7.3s4.4-3,7.3-3L100.1,0.6z"/>
						<path id="Path_00000110429593817711121170000002607725556371806364_" class="st2" d="M103.6,72.9l0-62c0-1-0.3-1.8-1-2.5
							c-0.6-0.6-1.5-1-2.5-1l-89.5,0c-1,0-1.8,0.3-2.5,1s-1,1.5-1,2.5l0,62c0,1,0.3,1.8,1,2.5c0.6,0.6,1.5,1,2.5,1l89.5,0
							c1,0,1.8-0.3,2.5-1C103.3,74.8,103.6,73.9,103.6,72.9z"/>
						<path id="Combined-Shape" class="st3" d="M71.7,55.7c-0.7,0-1.3-0.3-1.8-0.8c-0.5-0.5-0.8-1.1-0.8-1.8v-1.7
							c0-0.7,0.3-1.3,0.8-1.8s1.1-0.8,1.8-0.8l22.4,0c0.7,0,1.3,0.3,1.8,0.8s0.8,1.1,0.8,1.8v1.7c0,0.7-0.3,1.3-0.8,1.8
							s-1.1,0.8-1.8,0.8L71.7,55.7z M71.7,42c-0.7,0-1.3-0.3-1.8-0.8s-0.8-1.1-0.8-1.8v-1.7c0-0.7,0.3-1.3,0.8-1.8s1.1-0.8,1.8-0.8
							l22.4,0c0.7,0,1.3,0.3,1.8,0.8s0.8,1.1,0.8,1.8v1.7c0,0.7-0.3,1.3-0.8,1.8S94.8,42,94.1,42L71.7,42z M71.7,28.2
							c-0.7,0-1.3-0.3-1.8-0.8s-0.8-1.1-0.8-1.8v-1.7c0-0.7,0.3-1.3,0.8-1.8c0.5-0.5,1.1-0.8,1.8-0.8l22.4,0c0.7,0,1.3,0.3,1.8,0.8
							s0.8,1.1,0.8,1.8v1.7c0,0.7-0.3,1.3-0.8,1.8s-1.1,0.8-1.8,0.8L71.7,28.2z"/>
						<path id="Combined-Shape_00000161614069130983514320000002417672510867300229_" class="st4" d="M51.5,42.4
							c3.7,1.1,6.6,3.4,8.6,6.7c1.4,2.6,2.2,5.2,2.2,8v3c0,2.6-0.9,4.8-2.8,6.7s-4.1,2.8-6.7,2.8l-29.3,0c-2.6,0-4.8-0.9-6.7-2.8
							c-1.9-1.9-2.8-4.1-2.8-6.7l0-3c0-2.7,0.7-5.4,2.2-8c2-3.3,4.9-5.5,8.6-6.7c-2.6-3.2-3.9-6.7-3.9-10.8c0-4.7,1.7-8.8,5.1-12.2
							s7.4-5.1,12.2-5.1c4.8,0,8.8,1.7,12.2,5.1s5.1,7.4,5.1,12.2C55.4,35.6,54.1,39.2,51.5,42.4z M38.2,21.3c-2.9,0-5.3,1-7.3,3
							s-3,4.4-3,7.3c0,2.9,1,5.3,3,7.3s4.4,3,7.3,3s5.3-1,7.3-3c2-2,3-4.4,3-7.3s-1-5.3-3-7.3S41,21.3,38.2,21.3z M55.4,60v-3
							c0-1.9-0.6-3.5-1.7-5.1c-1.1-1.5-2.7-2.5-4.5-3.1l-4.5-1.3c-2,0.9-4.2,1.3-6.5,1.3c-2.3,0-4.4-0.4-6.5-1.3l-4.5,1.3
							c-1.9,0.6-3.4,1.6-4.5,3.1C21.6,53.4,21,55.1,21,57v3c0,0.7,0.3,1.3,0.8,1.8s1.1,0.8,1.8,0.8l29.3,0c0.7,0,1.3-0.3,1.8-0.8
							C55.1,61.3,55.4,60.7,55.4,60z"/>
						<g>
							<path class="st5" d="M47.9,64.1c-0.7,0.2-1.4,0.5-2.3,0.7c0.5,0.6,1,1.2,1.5,1.7s0.8,1.2,0.8,1.9c0,0.7-0.5,1.2-1.1,1.2
								c-2.3,0.1-4.6,0.1-7,0.2c-0.6,0-1.1-0.2-1.4-0.9c-0.4,1-1.2,1-2.1,1c-2,0-3.9,0.2-5.9,0.2c-1.4,0-2.1-1-1.4-2.3
								c0.4-0.7,0.9-1.3,1.4-2c0.4-0.6,0.4-0.6-0.3-0.8c-0.5-0.1-1.1-0.3-1.6-0.5c0.3,1.4-0.6,3.3-1.9,4c-1.2,0.7-2.2,0.6-3.2-0.5
								c-1.2-1.4-1.9-3-2.1-4.9c-0.2-2.9-0.4-5.9-0.2-8.8c0.1-0.8,0.1-1.6,0.3-2.4c0.2-0.7,0.4-1.5,0.7-2.2c-0.9-1.2-1.3-2.5-1-4
								c0.2-1,0.8-1.7,1.8-1.9c0.3-0.1,0.5-0.2,0.4-0.5c-0.1-3.5-0.2-7-0.3-10.5c0-0.4,0-0.7-0.5-0.8s-0.7-0.5-0.7-1
								c0-0.5,0.2-0.9,0.6-1.1c0.4-0.1,0.5-0.4,0.5-0.8c0-2.7,0.7-5.2,2.2-7.4c1.1-1.7,2.4-3.2,4.2-4.2c0.2-0.1,0.3-0.2,0.5-0.2
								c0-0.1-0.1-0.1-0.1-0.2c-0.4,0.1-0.9,0.1-1.3,0.3c-1.3,0.5-2.5,1.2-3.5,2.2c-0.3,0.3-0.9,0.6-1.3,0.5c-0.4,0-0.8-0.5-0.9-0.9
								c-0.1-0.3,0.1-0.8,0.4-1.1c1.9-2,4.2-3.2,7-3.6c2-0.3,3.9,0,5.9,0.5c0.7,0.2,1.5,0.1,2.2-0.1c2.8-1,5.6-1.1,8.4-0.2
								c1.7,0.5,3.2,1.4,4.5,2.8c0.4,0.4,0.4,1.1,0,1.5c-0.4,0.5-1,0.5-1.5,0.2c-0.8-0.5-1.5-1.1-2.3-1.6c-0.9-0.5-1.9-0.9-2.8-0.9
								c1.1,1,2.4,1.9,3.5,3c1.4,1.5,2.5,3.2,3.1,5.2c0.3,1.1,0.4,2.3,0.6,3.4c0,0.2,0.2,0.5,0.4,0.6c0.4,0.3,0.9,0.6,0.8,1.2
								c0,0.6-0.3,0.9-0.9,1.1c-0.1,0-0.3,0.3-0.3,0.5c0.1,3.6,0.2,7.1,0.3,10.7c0,0.2,0.2,0.5,0.4,0.5c1.7,0.2,2.1,1.4,2.1,2.7
								c0,1-0.1,2-0.8,2.9c-0.1,0.1-0.2,0.3-0.1,0.4c0.9,1.9,1.3,3.9,1.3,5.9c0.1,2.9,0.2,5.8,0,8.6c-0.1,1.8-1,3.5-2.6,4.6
								c-0.7,0.5-1.6,0.4-2.3-0.1c-1-0.7-1.8-1.7-2.1-2.9C47.8,64.7,47.9,64.4,47.9,64.1z M49.2,30.7c-0.7-0.1-1.4-0.2-2.1-0.4
								c-0.3-0.1-0.4,0.1-0.5,0.4c-0.3,0.9-0.5,1.9-0.9,2.8c-1.2,2.4-3,4-5.6,4.8c-2.2,0.7-4.4,0.7-6.5-0.2c-3.1-1.3-5-3.6-5.7-6.9
								c0-0.1-0.3-0.4-0.5-0.3c-0.7,0.1-1.4,0.3-2.1,0.5c0,0.2,0.1,0.3,0.1,0.4c0.1,4.1,0.3,8.1,0.3,12.2c0,0.6,0.3,0.9,0.7,1.1
								c1.9,1.1,3.9,2,6,2.6s4.3,0.9,6.5,0.6c2-0.2,4-0.7,5.8-1.6c1.5-0.8,3-1.6,4.4-2.5c0.2-0.1,0.5-0.4,0.5-0.7
								c0-1.5-0.1-3.1-0.1-4.6C49.4,36.2,49.3,33.5,49.2,30.7z M44.3,30.4c0.7-4-2.1-7.7-6.2-8.2c-3.8-0.5-7.6,2.2-8,6.4
								c-0.4,3.6,2,7.2,6.2,7.8C40.2,36.9,43.8,34.1,44.3,30.4z M44.9,53.5c0-0.4,0.1-1,0.1-1.6c0-0.9-0.8-1.5-1.6-1.2
								c-0.7,0.2-1.3,0.5-2,0.7c-1.5,0.5-3,0.7-4.5,0.5s-3-0.6-4.5-0.9c-1.1-0.2-1.7,0.3-1.6,1.4c0.2,1.1,0.4,2.1,0.7,3.1
								c0.6,1.9,1.8,3.3,3.6,4.1c2.2,1,5.3,0.7,7.3-1C43.9,57.4,44.5,55.6,44.9,53.5z M27.7,28.4c0.4-4.4,3.8-8,8.4-8.6
								c2.2-0.3,4.3,0.2,6.2,1.4c2.4,1.6,4,3.8,4.4,6.7c0.8,0.1,1.6,0.2,2.4,0.3c-0.6-4.7-3-8.1-7.3-9.9c-4.4-1.9-8.7-1.1-12.4,2
								c-2.6,2.2-3.9,5.1-4.1,8.6C26.2,28.7,27,28.6,27.7,28.4z M52.5,55.1c-0.1-0.9-0.1-1.6-0.3-2.4c-0.1-0.7-0.3-1.4-0.6-2.3
								c-0.7,0.7-1.5,1.1-1.8,1.8c-0.4,0.9-0.4,1.9-0.6,2.9C50.4,55.2,51.4,55.2,52.5,55.1z M23.9,51.3c-0.2,1.6-0.3,3.1-0.5,4.7
								c1.2,0,2.2-0.1,3.3-0.1c-0.2-1-0.4-1.9-0.6-2.9c0-0.1-0.1-0.2-0.2-0.2C25.2,52.3,24.7,51.9,23.9,51.3z M48.8,63.5
								c0,0.1,0.1,0.1,0.1,0.2c0.3-0.1,0.7-0.2,0.9-0.4c0.6-0.5,1.2-0.8,1.9-0.9c0.6-0.1,1-0.2,0.9-0.9c-0.1-0.8,0-1.5,0-2.3
								C51.6,60.9,50.5,62.5,48.8,63.5z M27.4,64.3c0-0.1,0.1-0.1,0.1-0.2c-1.6-1.1-2.9-2.4-4-4.3c0.1,1.2,0.2,2.2,0.2,3.3
								c1.2-0.1,2.3,0.3,3.2,1.1C27.1,64.3,27.3,64.3,27.4,64.3z M51.3,66c0.2-0.4,0.4-0.7,0.7-1.2C51.1,65.2,50.9,65.5,51.3,66z
								 M25.2,66.7c0.1,0,0.1-0.1,0.2-0.1c0.1-0.5-0.2-0.8-0.7-0.9C24.9,66,25.1,66.3,25.2,66.7z"/>
							<path class="st5" d="M36.1,45.9c-1.9-0.4-3.6-1.2-5.1-2.3c-0.6-0.4-0.7-1-0.4-1.6c0.3-0.5,0.8-0.7,1.4-0.4
								c0.9,0.4,1.7,0.9,2.5,1.3c1.8,0.9,3.7,1,5.5,0c0.9-0.5,1.8-1.1,2.8-1.7c0.4-0.3,1.2-0.2,1.5,0.2c0.5,0.5,0.5,1.2,0,1.6
								c-0.8,0.6-1.6,1.2-2.5,1.7c-1.5,0.8-3,1.3-4.7,1.2C36.8,46,36.4,45.9,36.1,45.9z"/>
							<path class="st5" d="M39.6,29.7c-0.3,1.3-1.5,2.2-2.8,1.9c-1.2-0.2-2.1-1.4-1.9-2.7c0.2-1.4,1.5-2.2,2.8-1.9
								C39,27.3,39.8,28.4,39.6,29.7z"/>
						</g>
					</g>
					<path id="Awesome_00000002359261547319170880000000459145637241450126_" class="st6" d="M136.8,52c-1.4,0-2.6-0.1-3.7-0.3
						s-2-0.8-2.7-1.6s-1.2-2.2-1.2-4c0-2.5,0.8-5.9,2.3-10.2s3.5-8.5,6-12.8c-1.9,0.1-3.4,0.4-4.5,0.8c-1.1,0.5-1.8,1.2-2.2,2.1
						c0.2,0,0.3,0.2,0.5,0.6s0.3,0.8,0.3,1.2c0,0.7-0.3,1.2-0.9,1.6s-1.4,0.6-2.3,0.6c-1.1,0-1.9-0.3-2.5-0.8c-0.6-0.6-1-1.4-1-2.4
						c0-1.3,0.5-2.5,1.5-3.5c1-1.1,2.4-1.9,4.2-2.5s3.7-0.9,5.9-0.9c0.8,0,1.8,0.1,2.9,0.2c3.1-4.9,6.4-8.9,9.8-12s6.7-4.7,9.9-4.7
						c1.8,0,3.3,0.3,4.5,0.8l-8.9,41.6h-8.1L151,25c-1.4-0.6-2.7-1.1-3.8-1.4c-1.2-0.3-2.4-0.5-3.7-0.6c-2.2,4.6-3.9,9.4-5.3,14.2
						c-1.4,4.8-2.1,8.7-2.1,11.6C136,50.2,136.3,51.3,136.8,52z M154.7,7.1c-1.6,0.9-3.3,2.5-5.1,4.8s-3.5,5.2-5.1,8.6
						c2.7,0.5,5,1.2,6.9,2L154.7,7.1z M167.9,45.8c-1.8,0-3.3-0.6-4.4-1.7c-1.1-1.1-1.7-2.8-1.7-5.1c0-0.9,0.2-2.2,0.5-3.7l3.8-18.2
						h8.1l-4.1,19.2c-0.1,0.5-0.2,0.9-0.2,1.4c0,1.7,0.6,2.5,1.7,2.5c1.1,0,2-0.4,2.7-1.3s1.4-2.1,1.8-3.6l3.8-18.2h8.1l-4.1,19.2
						c-0.2,0.9-0.3,1.6-0.3,2c0,1.2,0.6,1.9,1.9,1.9c1.7,0,3.3-1.1,4.8-3.3s2.7-4.8,3.6-7.8s1.4-5.6,1.4-7.8
						c-0.1,0.2-0.3,0.3-0.7,0.4s-0.8,0.1-1.1,0.1c-0.6,0-1.1-0.3-1.5-0.9s-0.5-1.3-0.5-2c0-0.9,0.3-1.6,0.9-2.2s1.5-0.8,2.6-0.8
						c1.2,0,2.2,0.5,2.7,1.4c0.6,0.9,0.8,2.1,0.8,3.5c0,3.4-0.6,7-1.8,10.9s-3,7.2-5.4,9.9s-5.4,4.1-9,4.1c-1.8,0-3.4-0.4-4.5-1.2
						c-1.2-0.8-1.9-2-2.3-3.6C173.8,44.3,171.1,45.8,167.9,45.8z M207.8,45.8c-2.8,0-5-0.7-6.5-2.2s-2.3-3.7-2.3-6.8
						c0-2.6,0.5-5.5,1.5-8.6s2.7-5.8,5-8.1s5.2-3.4,8.8-3.4c4.1,0,6.2,1.8,6.2,5.4c0,2.1-0.6,4.1-1.8,5.8c-1.2,1.8-2.8,3.2-4.8,4.3
						s-4.1,1.7-6.4,1.8c-0.1,1.1-0.1,1.9-0.1,2.3c0,1.8,0.3,3.1,1,3.8s1.7,1,3.1,1c2,0,3.8-0.5,5.2-1.4s3-2.4,4.8-4.3h1.9
						C219.1,42.4,213.9,45.8,207.8,45.8z M207.9,31.4c1.4-0.1,2.7-0.6,4-1.5s2.3-2.1,3.1-3.5s1.2-2.9,1.2-4.4s-0.5-2.3-1.4-2.3
						c-1.4,0-2.7,1.2-4,3.6C209.4,25.6,208.4,28.3,207.9,31.4z M227.8,45.8c-1.8,0-3.3-0.3-4.6-1c-1.2-0.7-2.2-1.6-2.8-2.7
						s-0.9-2.3-0.9-3.5s0.3-2.3,0.9-3.3c0.6-0.9,1.3-1.6,2.1-2c1.5-2.6,2.8-5.3,3.8-8s2.1-5.6,3.1-8.7l8.4-1.1
						c0.2,4.8,0.5,10.1,1,15.7c0.2,2.3,0.3,3.9,0.3,4.9c0,0.9-0.1,1.6-0.2,2.2c1.8-1,3.1-2,4.1-2.8h2.4c-2.4,2.8-5.3,5.1-8.7,7.1
						c-1.1,1.2-2.4,2-4,2.6C231.1,45.6,229.5,45.8,227.8,45.8z M226,41.4c1.4,0,2.6-0.4,3.5-1.2s1.4-2.2,1.4-4
						c0-1.1-0.1-2.7-0.3-4.8c-0.4-4.3-0.6-7.2-0.7-8.7c-0.9,3-2.4,6.5-4.6,10.7c0.9,0.5,1.3,1.1,1.3,2c0,0.7-0.2,1.4-0.7,1.9
						c-0.5,0.6-1.1,0.8-1.8,0.8c-0.8,0-1.3-0.2-1.5-0.7c0,1.4,0.3,2.4,0.8,3C224,41.1,224.8,41.4,226,41.4z M251.3,45.7
						c-2.8,0-5-0.7-6.6-2.2s-2.4-3.7-2.4-6.8c0-2.6,0.5-5.4,1.6-8.5s2.8-5.8,5.1-8.1s5.3-3.4,8.8-3.4c4.8,0,7.2,3,7.2,9.1v0.1
						c0.1,0,0.3,0.1,0.6,0.1c1.2,0,2.7-0.3,4.3-1s3.1-1.5,4.4-2.4l0.5,1.5c-1.1,1.2-2.5,2.2-4.3,3s-3.7,1.4-5.7,1.7
						c-0.3,3.4-1.1,6.4-2.3,9c-1.2,2.6-2.8,4.5-4.8,5.9C255.7,45,253.6,45.7,251.3,45.7z M253.5,40.6c0.9,0,1.8-0.5,2.7-1.6
						c0.9-1,1.7-2.5,2.4-4.2c0.7-1.8,1.2-3.8,1.5-6c-1-0.2-1.5-1-1.5-2.4c0-1.5,0.6-2.6,1.8-3.1c-0.1-1.2-0.3-2.1-0.6-2.6
						c-0.3-0.5-0.8-0.7-1.6-0.7c-1.2,0-2.5,0.9-3.6,2.7c-1.2,1.8-2.1,4-2.8,6.5s-1.1,4.8-1.1,6.7c0,1.8,0.2,3,0.6,3.6
						C251.7,40.3,252.4,40.6,253.5,40.6z M302.3,45.8c-2.3,0-4-0.6-5.1-1.8s-1.6-2.7-1.6-4.6c0-0.8,0.1-1.7,0.3-2.7
						c0.2-1,0.4-2,0.6-2.9s0.3-1.5,0.4-1.8c0.3-1.3,0.6-2.6,0.8-3.9s0.4-2.3,0.4-3.1c0-1.9-0.7-2.9-2-2.9c-1,0-1.8,0.5-2.6,1.4
						c-0.8,1-1.4,2.2-1.8,3.8l-3.8,18.2h-8.1l4.1-19.5c0.1-0.5,0.2-0.9,0.2-1.4c0-1.7-0.6-2.5-1.7-2.5s-2,0.5-2.7,1.4
						c-0.8,1-1.4,2.2-1.8,3.8l-3.8,18.2H266l6-28.3h8.1l-0.6,2.9c1.9-2.2,4.2-3.2,6.9-3.2c3.3,0,5.3,1.6,5.8,4.9
						c2.1-3.2,4.7-4.8,7.9-4.8c1.9,0,3.5,0.5,4.6,1.6s1.7,2.7,1.7,4.8c0,1.1-0.1,2.3-0.4,3.6c-0.3,1.3-0.6,3-1.1,4.9
						c-0.3,1.2-0.6,2.3-0.8,3.4c-0.2,1.1-0.4,2-0.4,2.6c0,0.8,0.2,1.3,0.5,1.8s0.9,0.6,1.8,0.6c1.1,0,2-0.4,2.7-1.2s1.4-2.1,2-3.8
						h2.4c-1.4,4.1-3,6.9-4.8,8.3C306.1,45.1,304.2,45.8,302.3,45.8z M318.4,45.8c-2.8,0-4.9-0.7-6.5-2.2s-2.3-3.7-2.3-6.8
						c0-2.6,0.5-5.5,1.5-8.6s2.7-5.8,5-8.1s5.2-3.4,8.8-3.4c4.1,0,6.2,1.8,6.2,5.4c0,2.1-0.6,4.1-1.8,5.8c-1.2,1.8-2.8,3.2-4.8,4.3
						s-4.1,1.7-6.4,1.8c-0.1,0.8-0.1,1.4-0.1,1.7c0,3.1,1.2,4.7,3.5,4.7c1.1,0,2.2-0.3,3.4-0.8c1.2-0.6,2.3-1.3,3.3-2.2
						C327.1,43.1,323.9,45.8,318.4,45.8z M318.5,31.4c1.4,0,2.8-0.5,4-1.4c1.3-0.9,2.3-2.1,3.1-3.5c0.8-1.4,1.2-2.9,1.2-4.4
						s-0.5-2.3-1.4-2.3c-1.3,0-2.6,1.2-3.9,3.6S319.1,28.4,318.5,31.4z"/>
					<path id="profile-cards_00000008139917790505066780000005086334597133290687_" class="st6" d="M145.8,63.2h8.1l-0.9,4.2
						c1.9-1.6,4.1-2.4,6.6-2.4c2.1,0,3.8,0.7,5,2.1s1.9,3.7,1.9,6.8c0,3-0.4,6-1.3,9s-2.3,5.6-4.4,7.8c-2.1,2.1-4.8,3.2-8.2,3.2
						c-2.4,0-4-0.7-4.8-2l-2.9,13.8l-8.5,2L145.8,63.2z M150.8,89c1.8,0,3.3-0.8,4.5-2.5s2.1-3.7,2.6-6.1s0.8-4.6,0.8-6.6
						c0-3.1-0.9-4.7-2.8-4.7c-0.7,0-1.4,0.2-2.1,0.7c-0.7,0.5-1.3,1.2-1.8,2l-3.3,15.8C149,88.6,149.7,89,150.8,89z M171.8,65.3h8.1
						l-0.7,3.5c1.3-1.1,2.4-2,3.5-2.6c1-0.6,2.2-0.9,3.4-0.9s2.2,0.4,2.9,1.2s1,1.8,1,3c0,1.1-0.4,2.1-1.1,2.9s-1.7,1.2-3,1.2
						c-0.8,0-1.4-0.2-1.7-0.6s-0.5-1-0.7-1.7c-0.1-0.5-0.2-0.8-0.3-1.1c-0.1-0.2-0.3-0.3-0.6-0.3c-0.8,0-1.5,0.2-2,0.5
						s-1.3,0.9-2.1,1.7L174,93.6h-8.1L171.8,65.3z M197.5,93.8c-2.8,0-5-0.7-6.6-2.2c-1.6-1.4-2.4-3.7-2.4-6.8
						c0-2.6,0.5-5.4,1.6-8.5s2.8-5.8,5.1-8.1c2.3-2.3,5.3-3.4,8.8-3.4c4.8,0,7.2,3,7.2,9.1V74c0.1,0,0.3,0.1,0.6,0.1
						c1.2,0,2.7-0.3,4.3-1s3.1-1.5,4.4-2.4l0.5,1.5c-1.1,1.2-2.5,2.2-4.3,3s-3.7,1.4-5.7,1.7c-0.3,3.4-1.1,6.4-2.3,9
						s-2.8,4.5-4.8,5.9C201.9,93.1,199.8,93.8,197.5,93.8z M199.7,88.7c0.9,0,1.8-0.5,2.7-1.6c0.9-1,1.7-2.5,2.4-4.2s1.2-3.8,1.5-6
						c-1-0.2-1.5-1-1.5-2.4c0-1.5,0.6-2.6,1.8-3.1c-0.1-1.2-0.3-2.1-0.6-2.6s-0.8-0.7-1.6-0.7c-1.2,0-2.5,0.9-3.6,2.7
						c-1.2,1.8-2.1,4-2.8,6.5s-1.1,4.8-1.1,6.7c0,1.8,0.2,3,0.6,3.6C197.9,88.4,198.6,88.7,199.7,88.7z M209.3,107.7
						c-2.1,0-3.8-0.6-5.1-1.7c-1.3-1.2-2-2.7-2-4.6c0-1.6,0.5-2.9,1.4-3.9s2-1.8,3.3-2.4s3-1.2,5.1-1.9l6.3-29.8
						c1-4.7,2.7-7.9,5.1-9.6c2.4-1.7,5.1-2.6,8.1-2.6c2.8,0,5.2,0.5,7.2,1.4s2.9,2.6,2.9,5.1c0,1.6-0.4,2.7-1.3,3.5
						c-0.8,0.7-1.9,1.1-3.2,1.1c-1,0-1.8-0.2-2.4-0.7s-1-1.3-1-2.3c0-0.7,0.2-1.4,0.5-1.9c0.4-0.6,0.8-0.8,1.4-0.8
						c0.3,0,0.4,0,0.5,0.1c0-0.8-0.3-1.3-0.9-1.7c-0.5-0.4-1.3-0.6-2.2-0.6c-1.7,0-3,0.6-4,1.8s-1.7,2.7-2,4.6l-1,4.6h4.5l-0.5,2.3
						h-4.5L219,98.3c-0.8,3.5-2.1,6-3.9,7.5S211.5,107.7,209.3,107.7z M234.8,93.9c-1.8,0-3.3-0.6-4.4-1.7c-1.1-1.1-1.7-2.8-1.7-5.1
						c0-0.9,0.2-2.2,0.5-3.7l3.8-18.2h8.1L237,84.4c-0.2,0.6-0.2,1.2-0.2,1.8c0,0.8,0.2,1.3,0.5,1.6c0.4,0.3,1,0.5,1.8,0.5
						c1.1,0,2.1-0.5,3.1-1.4s1.6-2.1,2-3.6h2.4c-1.4,4.1-3.2,6.8-5.4,8.3C239.1,93.2,236.9,93.9,234.8,93.9z M207.8,102.7
						c0.6,0,1.3-0.4,1.9-1.1c0.6-0.7,1.1-1.8,1.4-3.3l0.7-3.3c-1.9,0.6-3.5,1.4-4.6,2.3s-1.7,2-1.7,3.1c0,0.8,0.3,1.4,0.8,1.8
						C206.8,102.5,207.3,102.7,207.8,102.7z M249.9,93.9c-1.8,0-3.3-0.6-4.4-1.7c-1.1-1.1-1.7-2.8-1.7-5.1c0-0.9,0.2-2.2,0.5-3.7
						l6.1-28.3l8.4-1.1l-6.5,30.6c-0.2,0.6-0.2,1.2-0.2,1.8c0,0.8,0.2,1.3,0.5,1.6c0.4,0.3,1,0.5,1.8,0.5c1.1,0,2.1-0.5,3.1-1.4
						c0.9-0.9,1.6-2.1,2-3.6h2.4c-1.4,4.1-3.2,6.8-5.4,8.3S252,93.9,249.9,93.9z M267.3,93.9c-2.8,0-4.9-0.7-6.5-2.2
						s-2.3-3.7-2.3-6.8c0-2.6,0.5-5.5,1.5-8.6s2.7-5.8,5-8.1c2.3-2.3,5.2-3.4,8.8-3.4c4.1,0,6.2,1.8,6.2,5.4c0,2.1-0.6,4.1-1.8,5.8
						s-2.8,3.2-4.8,4.3c-2,1.1-4.1,1.7-6.4,1.8c-0.1,0.8-0.1,1.4-0.1,1.7c0,3.1,1.2,4.7,3.5,4.7c1.1,0,2.2-0.3,3.4-0.8
						c1.2-0.6,2.3-1.3,3.3-2.2C276.1,91.1,272.8,93.9,267.3,93.9z M267.5,79.5c1.4,0,2.8-0.5,4-1.4c1.3-0.9,2.3-2.1,3.1-3.5
						c0.8-1.4,1.2-2.9,1.2-4.4s-0.5-2.3-1.4-2.3c-1.3,0-2.6,1.2-3.9,3.6S268.1,76.5,267.5,79.5z M282.2,76.6h11.3l-1,4.5h-11.4
						L282.2,76.6z M304.6,93.9c-2.8,0-5-0.7-6.5-2.2s-2.3-3.7-2.3-6.8c0-2.6,0.5-5.5,1.6-8.6c1-3.1,2.7-5.8,5-8.1
						c2.3-2.3,5.2-3.4,8.7-3.4c2.3,0,3.9,0.5,4.8,1.5c1,1,1.4,2.2,1.4,3.7c0,1.3-0.3,2.3-0.8,3.1c-0.6,0.7-1.3,1.1-2.2,1.1
						c-0.6,0-1.3-0.2-2-0.7c0.5-1.2,0.7-2.4,0.7-3.3c0-0.7-0.1-1.3-0.4-1.7c-0.3-0.4-0.7-0.6-1.2-0.6c-1.1,0-2.3,0.9-3.4,2.8
						c-1.1,1.8-2.1,4.1-2.8,6.7c-0.7,2.6-1.1,5-1.1,7.1c0,1.8,0.3,3.1,1,3.8c0.6,0.7,1.7,1,3.1,1c2,0,3.8-0.5,5.2-1.4s3-2.4,4.8-4.3
						h1.9C315.9,90.5,310.8,93.9,304.6,93.9z M325,93.9c-2.2,0-3.9-0.7-5.4-2.2c-1.4-1.5-2.2-3.8-2.2-6.9c0-2.8,0.6-5.7,1.7-8.8
						c1.1-3.1,2.8-5.7,5-7.8c2.2-2.1,4.8-3.2,7.9-3.2c1.5,0,2.7,0.3,3.5,0.8s1.1,1.2,1.1,2.1v0.4l0.6-3h8.1l-4.1,19.2
						c-0.2,0.6-0.2,1.2-0.2,1.8c0,1.6,0.8,2.4,2.3,2.4c1.1,0,2-0.5,2.7-1.5c0.8-1,1.4-2.3,1.8-3.8h2.4c-1.4,4.1-3.1,6.8-5.2,8.3
						s-4.1,2.2-6.2,2.2c-1.6,0-2.9-0.4-3.8-1.3s-1.5-2.2-1.7-3.9c-1.1,1.5-2.3,2.8-3.6,3.8C328.4,93.5,326.8,93.9,325,93.9z
						 M328.7,88.5c0.9,0,1.9-0.4,2.8-1.3s1.6-2.1,1.9-3.6l2.7-12.8c0-0.5-0.2-1-0.6-1.4s-1-0.7-1.8-0.7c-1.5,0-2.9,0.9-4.1,2.6
						c-1.2,1.8-2.2,3.9-2.8,6.3c-0.7,2.5-1,4.6-1,6.5s0.3,3.1,0.8,3.6C327.2,88.2,327.9,88.5,328.7,88.5z M351.8,65.3h8.1l-0.7,3.5
						c1.3-1.1,2.4-2,3.5-2.6c1-0.6,2.2-0.9,3.4-0.9s2.2,0.4,2.9,1.2s1,1.8,1,3c0,1.1-0.4,2.1-1.1,2.9s-1.7,1.2-3,1.2
						c-0.8,0-1.4-0.2-1.7-0.6s-0.5-1-0.7-1.7c-0.1-0.5-0.2-0.8-0.3-1.1c-0.1-0.2-0.3-0.3-0.6-0.3c-0.8,0-1.5,0.2-2,0.5
						s-1.3,0.9-2.1,1.7L354,93.6h-8.1L351.8,65.3z M376,93.9c-2.2,0-3.9-0.7-5.4-2.2c-1.4-1.5-2.2-3.8-2.2-6.9
						c0-2.8,0.6-5.7,1.7-8.8c1.1-3.1,2.8-5.7,5-7.8c2.2-2.1,4.8-3.2,7.9-3.2c1.5,0,2.7,0.3,3.5,0.8s1.1,1.2,1.1,2.1v0.2l2.8-13
						l8.4-1.1l-6.5,30.6c-0.2,0.6-0.2,1.2-0.2,1.8c0,0.8,0.2,1.3,0.5,1.6c0.4,0.3,1,0.5,1.8,0.5c1.1,0,2-0.5,2.7-1.4
						c0.8-0.9,1.4-2.1,1.8-3.6h2.4c-2.3,6.8-6.1,10.1-11.4,10.1c-1.5,0-2.8-0.4-3.8-1.2c-1-0.8-1.6-2-1.8-3.6
						c-1,1.5-2.2,2.8-3.5,3.7S377.9,93.9,376,93.9z M379.7,88.5c0.9,0,1.8-0.4,2.7-1.2c0.9-0.8,1.6-2,1.9-3.5v-0.3l2.8-13
						c-0.3-1.3-1.1-2-2.3-2c-1.5,0-2.9,0.9-4.1,2.6c-1.2,1.8-2.2,3.9-2.8,6.3c-0.7,2.5-1,4.6-1,6.5s0.3,3.1,0.8,3.6
						C378.2,88.2,378.9,88.5,379.7,88.5z M405.4,93.9c-1.8,0-3.3-0.3-4.6-1c-1.2-0.7-2.2-1.6-2.8-2.7c-0.6-1.1-0.9-2.3-0.9-3.5
						s0.3-2.3,0.9-3.3c0.6-0.9,1.3-1.6,2.1-2c1.5-2.6,2.8-5.3,3.8-8c1.1-2.7,2.1-5.6,3.1-8.7l8.4-1.1c0.2,4.8,0.5,10.1,1,15.7
						c0.2,2.3,0.3,3.9,0.3,4.9c0,2.3-0.6,4.2-1.8,5.7c-1.2,1.5-2.6,2.5-4.3,3.2C408.9,93.6,407.2,93.9,405.4,93.9z M403.6,89.5
						c1.4,0,2.6-0.4,3.5-1.2s1.4-2.2,1.4-4c0-1.1-0.1-2.7-0.3-4.8c-0.4-4.3-0.6-7.2-0.7-8.7c-0.9,3-2.4,6.5-4.6,10.7
						c0.9,0.5,1.3,1.1,1.3,2c0,0.7-0.2,1.4-0.7,1.9c-0.5,0.6-1.1,0.8-1.8,0.8c-0.8,0-1.3-0.2-1.5-0.7c0,1.4,0.3,2.4,0.8,3
						C401.5,89.2,402.4,89.5,403.6,89.5z"/>
					<path id="Awesome" class="st4" d="M138.2,53.4c-1.4,0-2.6-0.1-3.7-0.3c-1.1-0.2-2-0.8-2.7-1.6s-1.2-2.2-1.2-4
						c0-2.5,0.8-5.9,2.3-10.2s3.5-8.5,6-12.8c-1.9,0.1-3.4,0.4-4.5,0.8c-1.1,0.5-1.8,1.2-2.2,2.1c0.2,0,0.3,0.2,0.5,0.6
						s0.3,0.8,0.3,1.2c0,0.7-0.3,1.2-0.9,1.6c-0.6,0.4-1.4,0.6-2.3,0.6c-1.1,0-1.9-0.3-2.5-0.8c-0.6-0.6-1-1.4-1-2.4
						c0-1.3,0.5-2.5,1.5-3.5c1-1.1,2.4-1.9,4.2-2.5s3.7-0.9,5.9-0.9c0.8,0,1.8,0.1,2.9,0.2c3.1-4.9,6.4-8.9,9.8-12s6.7-4.7,9.9-4.7
						c1.8,0,3.3,0.3,4.5,0.8l-8.9,41.6H148l4.4-20.5c-1.4-0.6-2.7-1.1-3.8-1.4c-1.2-0.3-2.4-0.5-3.7-0.6c-2.2,4.6-3.9,9.4-5.3,14.2
						c-1.4,4.8-2.1,8.7-2.1,11.6C137.4,51.6,137.7,52.7,138.2,53.4z M156.2,8.5c-1.6,0.9-3.3,2.5-5.1,4.8s-3.5,5.2-5.1,8.6
						c2.7,0.5,5,1.2,6.9,2L156.2,8.5z M169.3,47.3c-1.8,0-3.3-0.6-4.4-1.7c-1.1-1.1-1.7-2.8-1.7-5.1c0-0.9,0.2-2.2,0.5-3.7l3.8-18.2
						h8.1l-4.1,19.2c-0.1,0.5-0.2,0.9-0.2,1.4c0,1.7,0.6,2.5,1.7,2.5c1.1,0,2-0.4,2.7-1.3c0.8-0.9,1.4-2.1,1.8-3.6l3.8-18.2h8.1
						l-4.1,19.2c-0.2,0.9-0.3,1.6-0.3,2c0,1.2,0.6,1.9,1.9,1.9c1.7,0,3.3-1.1,4.8-3.3s2.7-4.8,3.6-7.8s1.4-5.6,1.4-7.8
						c-0.1,0.2-0.3,0.3-0.7,0.4s-0.8,0.1-1.1,0.1c-0.6,0-1.1-0.3-1.5-0.9s-0.5-1.3-0.5-2c0-0.9,0.3-1.6,0.9-2.2
						c0.6-0.6,1.5-0.8,2.6-0.8c1.2,0,2.2,0.5,2.7,1.4c0.6,0.9,0.8,2.1,0.8,3.5c0,3.4-0.6,7-1.8,10.9s-3,7.2-5.4,9.9s-5.4,4.1-9,4.1
						c-1.8,0-3.4-0.4-4.5-1.2c-1.2-0.8-1.9-2-2.3-3.6C175.2,45.7,172.5,47.3,169.3,47.3z M209.2,47.3c-2.8,0-5-0.7-6.5-2.2
						s-2.3-3.7-2.3-6.8c0-2.6,0.5-5.5,1.5-8.6s2.7-5.8,5-8.1s5.2-3.4,8.8-3.4c4.1,0,6.2,1.8,6.2,5.4c0,2.1-0.6,4.1-1.8,5.8
						c-1.2,1.8-2.8,3.2-4.8,4.3s-4.1,1.7-6.4,1.8c-0.1,1.1-0.1,1.9-0.1,2.3c0,1.8,0.3,3.1,1,3.8s1.7,1,3.1,1c2,0,3.8-0.5,5.2-1.4
						c1.5-0.9,3-2.4,4.8-4.3h1.9C220.6,43.8,215.4,47.3,209.2,47.3z M209.3,32.8c1.4-0.1,2.7-0.6,4-1.5c1.3-0.9,2.3-2.1,3.1-3.5
						s1.2-2.9,1.2-4.4s-0.5-2.3-1.4-2.3c-1.4,0-2.7,1.2-4,3.6C210.8,27.1,209.9,29.8,209.3,32.8z M229.3,47.3c-1.8,0-3.3-0.3-4.6-1
						c-1.2-0.7-2.2-1.6-2.8-2.7c-0.6-1.1-0.9-2.3-0.9-3.5s0.3-2.3,0.9-3.3c0.6-0.9,1.3-1.6,2.1-2c1.5-2.6,2.8-5.3,3.8-8
						c1.1-2.7,2.1-5.6,3.1-8.7l8.4-1.1c0.2,4.8,0.5,10.1,1,15.7c0.2,2.3,0.3,3.9,0.3,4.9c0,0.9-0.1,1.6-0.2,2.2c1.8-1,3.1-2,4.1-2.8
						h2.4c-2.4,2.8-5.3,5.1-8.7,7.1c-1.1,1.2-2.4,2-4,2.6C232.5,47,230.9,47.3,229.3,47.3z M227.5,42.8c1.4,0,2.6-0.4,3.5-1.2
						s1.4-2.2,1.4-4c0-1.1-0.1-2.7-0.3-4.8c-0.4-4.3-0.6-7.2-0.7-8.7c-0.9,3-2.4,6.5-4.6,10.7c0.9,0.5,1.3,1.1,1.3,2
						c0,0.7-0.2,1.4-0.7,1.9c-0.5,0.6-1.1,0.8-1.8,0.8c-0.8,0-1.3-0.2-1.5-0.7c0,1.4,0.3,2.4,0.8,3
						C225.4,42.5,226.2,42.8,227.5,42.8z M252.7,47.1c-2.8,0-5-0.7-6.6-2.2c-1.6-1.4-2.4-3.7-2.4-6.8c0-2.6,0.5-5.4,1.6-8.5
						s2.8-5.8,5.1-8.1s5.3-3.4,8.8-3.4c4.8,0,7.2,3,7.2,9.1v0.1c0.1,0,0.3,0.1,0.6,0.1c1.2,0,2.7-0.3,4.3-1c1.6-0.7,3.1-1.5,4.4-2.4
						l0.5,1.5c-1.1,1.2-2.5,2.2-4.3,3s-3.7,1.4-5.7,1.7c-0.3,3.4-1.1,6.4-2.3,9s-2.8,4.5-4.8,5.9C257.1,46.5,255,47.1,252.7,47.1z
						 M255,42.1c0.9,0,1.8-0.5,2.7-1.6c0.9-1,1.7-2.5,2.4-4.2c0.7-1.8,1.2-3.8,1.5-6c-1-0.2-1.5-1-1.5-2.4c0-1.5,0.6-2.6,1.8-3.1
						c-0.1-1.2-0.3-2.1-0.6-2.6c-0.3-0.5-0.8-0.7-1.6-0.7c-1.2,0-2.5,0.9-3.6,2.7s-2.1,4-2.8,6.5s-1.1,4.8-1.1,6.7
						c0,1.8,0.2,3,0.6,3.6C253.1,41.7,253.9,42.1,255,42.1z M303.7,47.3c-2.3,0-4-0.6-5.1-1.8s-1.6-2.7-1.6-4.6
						c0-0.8,0.1-1.7,0.3-2.7s0.4-2,0.6-2.9s0.3-1.5,0.4-1.8c0.3-1.3,0.6-2.6,0.8-3.9s0.4-2.3,0.4-3.1c0-1.9-0.7-2.9-2-2.9
						c-1,0-1.8,0.5-2.6,1.4c-0.8,1-1.4,2.2-1.8,3.8L289.3,47h-8.1l4.1-19.5c0.1-0.5,0.2-0.9,0.2-1.4c0-1.7-0.6-2.5-1.7-2.5
						s-2,0.5-2.7,1.4c-0.8,1-1.4,2.2-1.8,3.8L275.5,47h-8.1l6-28.3h8.1l-0.6,2.9c1.9-2.2,4.2-3.2,6.9-3.2c3.3,0,5.3,1.6,5.8,4.9
						c2.1-3.2,4.7-4.8,7.9-4.8c1.9,0,3.5,0.5,4.6,1.6s1.7,2.7,1.7,4.8c0,1.1-0.1,2.3-0.4,3.6c-0.3,1.3-0.6,3-1.1,4.9
						c-0.3,1.2-0.6,2.3-0.8,3.4c-0.2,1.1-0.4,2-0.4,2.6c0,0.8,0.2,1.3,0.5,1.8c0.3,0.4,0.9,0.6,1.8,0.6c1.1,0,2-0.4,2.7-1.2
						s1.4-2.1,2-3.8h2.4c-1.4,4.1-3,6.9-4.8,8.3C307.5,46.6,305.6,47.3,303.7,47.3z M319.8,47.3c-2.8,0-4.9-0.7-6.5-2.2
						s-2.3-3.7-2.3-6.8c0-2.6,0.5-5.5,1.5-8.6s2.7-5.8,5-8.1s5.2-3.4,8.8-3.4c4.1,0,6.2,1.8,6.2,5.4c0,2.1-0.6,4.1-1.8,5.8
						c-1.2,1.8-2.8,3.2-4.8,4.3s-4.1,1.7-6.4,1.8c-0.1,0.8-0.1,1.4-0.1,1.7c0,3.1,1.2,4.7,3.5,4.7c1.1,0,2.2-0.3,3.4-0.8
						c1.2-0.6,2.3-1.3,3.3-2.2C328.6,44.5,325.3,47.3,319.8,47.3z M319.9,32.8c1.4,0,2.8-0.5,4-1.4c1.3-0.9,2.3-2.1,3.1-3.5
						c0.8-1.4,1.2-2.9,1.2-4.4s-0.5-2.3-1.4-2.3c-1.3,0-2.6,1.2-3.9,3.6S320.5,29.8,319.9,32.8z"/>
					<path id="profile-cards" class="st4" d="M147.2,64.6h8.1l-0.9,4.2c1.9-1.6,4.1-2.4,6.6-2.4c2.1,0,3.8,0.7,5,2.1
						s1.9,3.7,1.9,6.8c0,3-0.4,6-1.3,9s-2.3,5.6-4.4,7.8c-2.1,2.1-4.8,3.2-8.2,3.2c-2.4,0-4-0.7-4.8-2l-2.9,13.8l-8.5,2L147.2,64.6z
						 M152.3,90.4c1.8,0,3.3-0.8,4.5-2.5s2.1-3.7,2.6-6.1s0.8-4.6,0.8-6.6c0-3.1-0.9-4.7-2.8-4.7c-0.7,0-1.4,0.2-2.1,0.7
						s-1.3,1.2-1.8,2L150.2,89C150.4,90,151.1,90.4,152.3,90.4z M173.2,66.7h8.1l-0.7,3.5c1.3-1.1,2.4-2,3.5-2.6
						c1-0.6,2.2-0.9,3.4-0.9s2.2,0.4,2.9,1.2s1,1.8,1,3c0,1.1-0.4,2.1-1.1,2.9s-1.7,1.2-3,1.2c-0.8,0-1.4-0.2-1.7-0.6
						s-0.5-1-0.7-1.7c-0.1-0.5-0.2-0.8-0.3-1.1c-0.1-0.2-0.3-0.3-0.6-0.3c-0.8,0-1.5,0.2-2,0.5s-1.3,0.9-2.1,1.7L175.3,95h-8.1
						L173.2,66.7z M198.9,95.2c-2.8,0-5-0.7-6.6-2.2c-1.6-1.4-2.4-3.7-2.4-6.8c0-2.6,0.5-5.4,1.6-8.5s2.8-5.8,5.1-8.1
						s5.3-3.4,8.8-3.4c4.8,0,7.2,3,7.2,9.1v0.1c0.1,0,0.3,0.1,0.6,0.1c1.2,0,2.7-0.3,4.3-1s3.1-1.5,4.4-2.4l0.5,1.5
						c-1.1,1.2-2.5,2.2-4.3,3s-3.7,1.4-5.7,1.7c-0.3,3.4-1.1,6.4-2.3,9s-2.8,4.5-4.8,5.9C203.3,94.5,201.2,95.2,198.9,95.2z
						 M201.1,90.1c0.9,0,1.8-0.5,2.7-1.6c0.9-1,1.7-2.5,2.4-4.2c0.7-1.8,1.2-3.8,1.5-6c-1-0.2-1.5-1-1.5-2.4c0-1.5,0.6-2.6,1.8-3.1
						c-0.1-1.2-0.3-2.1-0.6-2.6s-0.8-0.7-1.6-0.7c-1.2,0-2.5,0.9-3.6,2.7c-1.2,1.8-2.1,4-2.8,6.5s-1.1,4.8-1.1,6.7
						c0,1.8,0.2,3,0.6,3.6C199.3,89.8,200,90.1,201.1,90.1z M210.8,109.2c-2.1,0-3.8-0.6-5.1-1.7c-1.3-1.2-2-2.7-2-4.6
						c0-1.6,0.5-2.9,1.4-3.9s2-1.8,3.3-2.4s3-1.2,5.1-1.9l6.3-29.8c1-4.7,2.7-7.9,5.1-9.6s5.1-2.6,8.1-2.6c2.8,0,5.2,0.5,7.2,1.4
						s2.9,2.6,2.9,5.1c0,1.6-0.4,2.7-1.3,3.5c-0.8,0.7-1.9,1.1-3.2,1.1c-1,0-1.8-0.2-2.4-0.7c-0.6-0.5-1-1.3-1-2.3
						c0-0.7,0.2-1.4,0.5-1.9c0.4-0.6,0.8-0.8,1.4-0.8c0.3,0,0.4,0,0.5,0.1c0-0.8-0.3-1.3-0.9-1.7c-0.5-0.4-1.3-0.6-2.2-0.6
						c-1.7,0-3,0.6-4,1.8s-1.7,2.7-2,4.6l-1,4.6h4.5l-0.5,2.3H227l-6.5,30.6c-0.8,3.5-2.1,6-3.9,7.5
						C215,108.4,212.9,109.2,210.8,109.2z M236.2,95.4c-1.8,0-3.3-0.6-4.4-1.7c-1.1-1.1-1.7-2.8-1.7-5.1c0-0.9,0.2-2.2,0.5-3.7
						l3.8-18.2h8.1l-4,19.3c-0.2,0.6-0.2,1.2-0.2,1.8c0,0.8,0.2,1.3,0.5,1.6c0.4,0.3,1,0.5,1.8,0.5c1.1,0,2.1-0.5,3.1-1.4
						c0.9-0.9,1.6-2.1,2-3.6h2.4c-1.4,4.1-3.2,6.8-5.4,8.3C240.5,94.6,238.3,95.4,236.2,95.4z M209.2,104.1c0.6,0,1.3-0.4,1.9-1.1
						c0.6-0.7,1.1-1.8,1.4-3.3l0.7-3.3c-1.9,0.6-3.5,1.4-4.6,2.3s-1.7,2-1.7,3.1c0,0.8,0.3,1.4,0.8,1.8
						C208.2,104,208.7,104.1,209.2,104.1z M251.3,95.4c-1.8,0-3.3-0.6-4.4-1.7s-1.7-2.8-1.7-5.1c0-0.9,0.2-2.2,0.5-3.7l6.1-28.3
						l8.4-1.1L253.6,86c-0.2,0.6-0.2,1.2-0.2,1.8c0,0.8,0.2,1.3,0.5,1.6s1,0.5,1.8,0.5c1.1,0,2.1-0.5,3.1-1.4c0.9-0.9,1.6-2.1,2-3.6
						h2.4c-1.4,4.1-3.2,6.8-5.4,8.3C255.6,94.6,253.4,95.4,251.3,95.4z M268.8,95.4c-2.8,0-4.9-0.7-6.5-2.2
						c-1.5-1.5-2.3-3.7-2.3-6.8c0-2.6,0.5-5.5,1.5-8.6s2.7-5.8,5-8.1c2.3-2.3,5.2-3.4,8.8-3.4c4.1,0,6.2,1.8,6.2,5.4
						c0,2.1-0.6,4.1-1.8,5.8c-1.2,1.8-2.8,3.2-4.8,4.3c-2,1.1-4.1,1.7-6.4,1.8c-0.1,0.8-0.1,1.4-0.1,1.7c0,3.1,1.2,4.7,3.5,4.7
						c1.1,0,2.2-0.3,3.4-0.8c1.2-0.6,2.3-1.3,3.3-2.2C277.5,92.6,274.3,95.4,268.8,95.4z M268.9,80.9c1.4,0,2.8-0.5,4-1.4
						s2.3-2.1,3.1-3.5c0.8-1.4,1.2-2.9,1.2-4.4s-0.5-2.3-1.4-2.3c-1.3,0-2.6,1.2-3.9,3.6C270.5,75.2,269.5,77.9,268.9,80.9z
						 M283.6,78h11.3l-1,4.5h-11.4L283.6,78z M306,95.4c-2.8,0-5-0.7-6.5-2.2s-2.3-3.7-2.3-6.8c0-2.6,0.5-5.5,1.6-8.6
						c1-3.1,2.7-5.8,5-8.1s5.2-3.4,8.7-3.4c2.3,0,3.9,0.5,4.8,1.5c1,1,1.4,2.2,1.4,3.7c0,1.3-0.3,2.3-0.8,3.1
						c-0.6,0.7-1.3,1.1-2.2,1.1c-0.6,0-1.3-0.2-2-0.7c0.5-1.2,0.7-2.4,0.7-3.3c0-0.7-0.1-1.3-0.4-1.7s-0.7-0.6-1.2-0.6
						c-1.1,0-2.3,0.9-3.4,2.8c-1.1,1.8-2.1,4.1-2.8,6.7s-1.1,5-1.1,7.1c0,1.8,0.3,3.1,1,3.8c0.6,0.7,1.7,1,3.1,1
						c2,0,3.8-0.5,5.2-1.4c1.5-0.9,3-2.4,4.8-4.3h1.9C317.4,91.9,312.2,95.4,306,95.4z M326.4,95.4c-2.2,0-3.9-0.7-5.4-2.2
						c-1.4-1.5-2.2-3.8-2.2-6.9c0-2.8,0.6-5.7,1.7-8.8s2.8-5.7,5-7.8s4.8-3.2,7.9-3.2c1.5,0,2.7,0.3,3.5,0.8s1.1,1.2,1.1,2.1v0.4
						l0.6-3h8.1l-4,19.2c-0.2,0.6-0.2,1.2-0.2,1.8c0,1.6,0.8,2.4,2.3,2.4c1.1,0,2-0.5,2.7-1.5c0.8-1,1.4-2.3,1.8-3.8h2.4
						c-1.4,4.1-3.1,6.8-5.2,8.3s-4.1,2.2-6.2,2.2c-1.6,0-2.9-0.4-3.8-1.3c-1-0.9-1.5-2.2-1.7-3.9c-1.1,1.5-2.3,2.8-3.6,3.8
						C329.9,94.9,328.3,95.4,326.4,95.4z M330.1,89.9c0.9,0,1.9-0.4,2.8-1.3s1.6-2.1,1.9-3.6l2.7-12.8c0-0.5-0.2-1-0.6-1.4
						c-0.4-0.5-1-0.7-1.8-0.7c-1.5,0-2.9,0.9-4.1,2.6c-1.2,1.8-2.2,3.9-2.8,6.3c-0.7,2.5-1,4.6-1,6.5s0.3,3.1,0.8,3.6
						C328.6,89.6,329.3,89.9,330.1,89.9z M353.2,66.7h8.1l-0.7,3.5c1.3-1.1,2.4-2,3.5-2.6c1-0.6,2.2-0.9,3.4-0.9
						c1.2,0,2.2,0.4,2.9,1.2c0.7,0.8,1,1.8,1,3c0,1.1-0.4,2.1-1.1,2.9s-1.7,1.2-3,1.2c-0.8,0-1.4-0.2-1.7-0.6s-0.5-1-0.7-1.7
						c-0.1-0.5-0.2-0.8-0.3-1.1c-0.1-0.2-0.3-0.3-0.6-0.3c-0.8,0-1.5,0.2-2,0.5s-1.3,0.9-2.1,1.7L355.4,95h-8.1L353.2,66.7z
						 M377.4,95.4c-2.2,0-3.9-0.7-5.4-2.2c-1.4-1.5-2.2-3.8-2.2-6.9c0-2.8,0.6-5.7,1.7-8.8c1.1-3.1,2.8-5.7,5-7.8
						c2.2-2.1,4.8-3.2,7.9-3.2c1.5,0,2.7,0.3,3.5,0.8s1.1,1.2,1.1,2.1v0.2l2.8-13l8.4-1.1L393.7,86c-0.2,0.6-0.2,1.2-0.2,1.8
						c0,0.8,0.2,1.3,0.5,1.6c0.4,0.3,1,0.5,1.8,0.5c1.1,0,2-0.5,2.7-1.4c0.8-0.9,1.4-2.1,1.8-3.6h2.4c-2.3,6.8-6.1,10.1-11.4,10.1
						c-1.5,0-2.8-0.4-3.8-1.2c-1-0.8-1.6-2-1.8-3.6c-1,1.5-2.2,2.8-3.5,3.7C380.9,94.9,379.3,95.4,377.4,95.4z M381.1,89.9
						c0.9,0,1.8-0.4,2.7-1.2c0.9-0.8,1.6-2,1.9-3.5v-0.3l2.8-13c-0.3-1.3-1.1-2-2.3-2c-1.5,0-2.9,0.9-4.1,2.6
						c-1.2,1.8-2.2,3.9-2.8,6.3c-0.7,2.5-1,4.6-1,6.5s0.3,3.1,0.8,3.6C379.7,89.6,380.3,89.9,381.1,89.9z M406.8,95.4
						c-1.8,0-3.3-0.3-4.6-1c-1.2-0.7-2.2-1.6-2.8-2.7c-0.6-1.1-0.9-2.3-0.9-3.5s0.3-2.3,0.9-3.3c0.6-0.9,1.3-1.6,2.1-2
						c1.5-2.6,2.8-5.3,3.8-8c1.1-2.7,2.1-5.6,3.1-8.7l8.4-1.1c0.2,4.8,0.5,10.1,1,15.7c0.2,2.3,0.3,3.9,0.3,4.9
						c0,2.3-0.6,4.2-1.8,5.7s-2.6,2.5-4.3,3.2C410.3,95,408.6,95.4,406.8,95.4z M405,90.9c1.4,0,2.6-0.4,3.5-1.2
						c0.9-0.8,1.4-2.2,1.4-4c0-1.1-0.1-2.7-0.3-4.8c-0.4-4.3-0.6-7.2-0.7-8.7c-0.9,3-2.4,6.5-4.6,10.7c0.9,0.5,1.3,1.1,1.3,2
						c0,0.7-0.2,1.4-0.7,1.9c-0.5,0.6-1.1,0.8-1.8,0.8c-0.8,0-1.3-0.2-1.5-0.7c0,1.4,0.3,2.4,0.8,3C402.9,90.6,403.8,90.9,405,90.9z
						"/>
				</g>
			</g>
		</g>
	</g>
</g>
<g>
	<g class="st7">
		<path class="st8" d="M161.4,73.8c0,3.6-1.2,6.6-3.7,9.1c-2.5,2.5-5.5,3.7-9.1,3.7c-2.3,0-4.4-0.6-6.4-1.7v14.7h-6.5V73.8
			c0-3.6,1.2-6.7,3.7-9.1c2.5-2.5,5.5-3.7,9.1-3.7c3.6,0,6.6,1.2,9.1,3.7C160.1,67.2,161.4,70.2,161.4,73.8z M154.9,73.8
			c0-1.8-0.6-3.3-1.8-4.5c-1.2-1.2-2.7-1.8-4.5-1.8c-1.8,0-3.3,0.6-4.5,1.8s-1.9,2.7-1.9,4.5c0,1.8,0.6,3.3,1.9,4.5s2.8,1.8,4.5,1.8
			c1.8,0,3.3-0.6,4.5-1.8C154.3,77.1,154.9,75.6,154.9,73.8z"/>
		<path class="st8" d="M177.5,67.5c-1.8,0-3.3,0.6-4.5,1.8s-1.9,2.7-1.9,4.5v12.1h-6.5V73.8c0-3.6,1.2-6.6,3.7-9.1
			c2.5-2.5,5.5-3.7,9.1-3.7V67.5z"/>
		<path class="st8" d="M206.4,73.8c0,3.6-1.2,6.6-3.7,9.1c-2.5,2.5-5.5,3.7-9.1,3.7c-3.6,0-6.7-1.2-9.1-3.7
			c-2.5-2.5-3.7-5.5-3.7-9.1c0-3.6,1.2-6.6,3.7-9.1c2.5-2.5,5.5-3.7,9.1-3.7c3.6,0,6.6,1.2,9.1,3.7
			C205.2,67.2,206.4,70.2,206.4,73.8z M199.9,73.8c0-1.7-0.6-3.2-1.9-4.4c-1.2-1.2-2.7-1.9-4.5-1.9c-1.8,0-3.3,0.6-4.5,1.8
			s-1.9,2.7-1.9,4.5s0.6,3.2,1.9,4.5s2.8,1.9,4.5,1.9c1.8,0,3.3-0.6,4.5-1.9C199.3,77.1,199.9,75.6,199.9,73.8z"/>
		<path class="st8" d="M222.6,76.4h-6.4v9.5h-6.5V60.8c0-3.6,1.2-6.7,3.7-9.1c2.5-2.5,5.5-3.7,9.1-3.7v6.5c-1.8,0-3.3,0.6-4.5,1.9
			c-1.2,1.2-1.9,2.7-1.9,4.5v10.1h6.4V76.4z"/>
		<path class="st8" d="M232.9,55.5c0,1.1-0.4,2-1.1,2.8c-0.7,0.8-1.6,1.1-2.7,1.1c-1.1,0-2-0.4-2.8-1.1c-0.8-0.8-1.1-1.7-1.1-2.8
			c0-1.1,0.4-2,1.1-2.7c0.8-0.7,1.7-1.1,2.8-1.1c1.1,0,2,0.4,2.7,1.1C232.6,53.5,232.9,54.4,232.9,55.5z M232.4,85.9h-6.5V61h6.5
			V85.9z"/>
		<path class="st8" d="M242.2,85.9h-6.5V48h6.5V85.9z"/>
		<path class="st8" d="M271.1,73.8c0,0.6,0,1.3-0.1,1.9h-18.8c0.4,1.3,1.2,2.4,2.3,3.2c1.1,0.8,2.4,1.2,3.8,1.2c2,0,3.6-0.8,4.8-2.3
			l3.9,5.2c-2.5,2.3-5.4,3.5-8.8,3.5c-3.6,0-6.7-1.2-9.1-3.7s-3.7-5.5-3.7-9.1c0-3.6,1.2-6.6,3.7-9.1c2.5-2.5,5.5-3.7,9.1-3.7
			s6.6,1.2,9.1,3.7C269.9,67.2,271.1,70.2,271.1,73.8z M263.9,70.9c-1.2-2.2-3-3.4-5.6-3.4c-2.6,0-4.4,1.1-5.6,3.4H263.9z"/>
		<path class="st8" d="M282.2,67c0,1.1-0.4,2-1.1,2.8c-0.7,0.8-1.6,1.1-2.7,1.1c-1.1,0-2-0.4-2.8-1.1c-0.8-0.8-1.1-1.7-1.1-2.8
			c0-1.1,0.4-2,1.1-2.7c0.8-0.7,1.7-1.1,2.8-1.1c1.1,0,2,0.4,2.7,1.1C281.8,65,282.2,65.9,282.2,67z"/>
		<path class="st8" d="M307.3,83c-2.5,2.4-5.5,3.6-8.9,3.6c-3.6,0-6.7-1.2-9.1-3.7c-2.5-2.5-3.7-5.5-3.7-9.1c0-3.6,1.2-6.6,3.7-9.1
			c2.5-2.5,5.5-3.7,9.1-3.7c3.3,0,6.1,1.1,8.5,3.3l-3.9,5.2c-1.2-1.3-2.8-2-4.7-2c-1.8,0-3.3,0.6-4.5,1.8c-1.2,1.2-1.9,2.7-1.9,4.5
			s0.6,3.2,1.9,4.5c1.2,1.2,2.8,1.9,4.5,1.9c1.9,0,3.5-0.7,4.8-2.2L307.3,83z"/>
		<path class="st8" d="M341.4,85.9h-6.9l-1.4-3.7c-2.6,3-5.8,4.5-9.8,4.5c-3.6,0-6.6-1.2-9.1-3.7c-2.5-2.5-3.7-5.5-3.7-9.1
			c0-2.7,0.8-5.2,2.3-7.4c1.5-2.2,3.6-3.8,6.1-4.7c1.5-0.5,3-0.8,4.4-0.8c2.7,0,5.2,0.8,7.4,2.3c2.2,1.6,3.8,3.6,4.7,6.2L341.4,85.9
			z M329.8,73.9c0-2.2-0.9-4-2.7-5.2c-1.1-0.7-2.3-1.1-3.6-1.1c-2.2,0-4,0.9-5.2,2.7c-0.8,1.1-1.2,2.3-1.2,3.7
			c0,2.2,0.9,3.9,2.7,5.2c1.1,0.8,2.3,1.2,3.6,1.2c1.8,0,3.3-0.6,4.5-1.9C329.1,77.1,329.8,75.6,329.8,73.9z"/>
		<path class="st8" d="M357.6,67.5c-1.8,0-3.3,0.6-4.5,1.8c-1.2,1.2-1.9,2.7-1.9,4.5v12.1h-6.5V73.8c0-3.6,1.2-6.6,3.7-9.1
			c2.5-2.5,5.5-3.7,9.1-3.7V67.5z"/>
		<path class="st8" d="M386.5,73.8c0,3.6-1.2,6.6-3.7,9.1c-2.5,2.5-5.5,3.7-9.1,3.7c-3.6,0-6.7-1.2-9.1-3.7
			c-2.5-2.5-3.7-5.5-3.7-9.1c0-3.6,1.2-6.6,3.7-9.1c2.5-2.5,5.5-3.7,9.1-3.7c2.3,0,4.4,0.5,6.3,1.6V48h6.5V73.8z M380,73.8
			c0-1.7-0.6-3.2-1.9-4.4c-1.2-1.2-2.7-1.9-4.5-1.9c-1.8,0-3.3,0.6-4.5,1.8c-1.2,1.2-1.9,2.7-1.9,4.5s0.6,3.2,1.9,4.5
			c1.2,1.2,2.8,1.9,4.5,1.9c1.8,0,3.3-0.6,4.5-1.9C379.4,77.1,380,75.6,380,73.8z"/>
		<path class="st8" d="M409.3,78.6c0,1.5-0.5,2.9-1.5,4.2c-2,2.5-5,3.7-8.7,3.6c-1.5,0-3.1-0.4-4.9-1c-1.8-0.6-3.2-1.4-4.3-2.4
			l3.6-4.7c1.7,1.6,3.6,2.4,5.5,2.4h0.1c0.8,0,1.5-0.1,2.2-0.4c0.8-0.4,1.2-0.9,1.2-1.6v-0.2c-0.1-0.7-0.6-1.3-1.5-1.6
			c-0.4-0.1-1.1-0.2-2.3-0.4c-1.4-0.3-2.7-0.6-3.6-1.1c-2.9-1.2-4.4-3.4-4.4-6.6c0-3,1.5-5.3,4.5-6.8c1.3-0.7,2.7-1,4.3-1.1
			c1.6,0,3.3,0.2,5,0.8c2,0.7,3.4,1.6,4.2,2.6l-4.3,3.9c-1.1-1.2-2.3-1.7-3.6-1.7c-2,0-3.1,0.7-3.1,2v0.1c0,0.6,0.8,1.2,2.5,1.6
			c0.1,0,1.2,0.2,3.2,0.6c4,0.8,6,3.2,6,7.4V78.6z"/>
	</g>
	<g class="st7">
		<path class="st8" d="M166.6,42.8h-6.9l-1.4-3.7c-2.6,3-5.8,4.5-9.8,4.5c-3.6,0-6.6-1.2-9.1-3.7s-3.7-5.5-3.7-9.1
			c0-2.7,0.8-5.2,2.3-7.4c1.5-2.2,3.6-3.8,6.1-4.7c1.5-0.5,3-0.8,4.4-0.8c2.7,0,5.2,0.8,7.4,2.3c2.2,1.6,3.8,3.6,4.7,6.2L166.6,42.8
			z M154.9,30.8c0-2.2-0.9-4-2.7-5.2c-1.1-0.7-2.3-1.1-3.6-1.1c-2.2,0-4,0.9-5.2,2.7c-0.8,1.1-1.2,2.3-1.2,3.7
			c0,2.2,0.9,3.9,2.7,5.2c1.1,0.8,2.3,1.2,3.6,1.2c1.8,0,3.3-0.6,4.5-1.9S154.9,32.5,154.9,30.8z"/>
		<path class="st8" d="M213.9,30.7c0,3.6-1.2,6.7-3.7,9.1s-5.5,3.7-9.1,3.7c-3.6,0-6.6-1.3-9.1-3.8c-2.5,2.6-5.6,3.8-9.1,3.8
			c-3.6,0-6.7-1.2-9.1-3.7c-2.5-2.5-3.7-5.5-3.7-9.1V17.9h6.5v12.8c0,1.8,0.6,3.3,1.9,4.5c1.3,1.2,2.8,1.9,4.5,1.9
			c1.8,0,3.3-0.6,4.5-1.9c1.2-1.2,1.9-2.8,1.9-4.5V17.9h6.5V34c1.2,2,3.1,3.1,5.4,3.1c1.8,0,3.3-0.6,4.5-1.9
			c1.2-1.2,1.8-2.8,1.8-4.5V17.9h6.5V30.7z"/>
		<path class="st8" d="M242.9,30.7c0,0.6,0,1.3-0.1,1.9H224c0.4,1.3,1.2,2.4,2.3,3.2c1.1,0.8,2.4,1.2,3.8,1.2c2,0,3.6-0.8,4.8-2.3
			l3.9,5.2c-2.5,2.3-5.4,3.5-8.8,3.5c-3.6,0-6.7-1.2-9.1-3.7c-2.5-2.5-3.7-5.5-3.7-9.1c0-3.6,1.2-6.6,3.7-9.1
			c2.5-2.5,5.5-3.7,9.1-3.7c3.6,0,6.6,1.2,9.1,3.7C241.6,24.1,242.9,27.1,242.9,30.7z M235.6,27.8c-1.2-2.2-3-3.4-5.6-3.4
			c-2.6,0-4.4,1.1-5.6,3.4H235.6z"/>
		<path class="st8" d="M265.7,35.5c0,1.5-0.5,2.9-1.5,4.2c-2,2.5-5,3.7-8.7,3.6c-1.5,0-3.1-0.4-4.9-1c-1.8-0.6-3.2-1.4-4.3-2.4
			l3.6-4.7c1.7,1.6,3.6,2.4,5.5,2.4h0.1c0.8,0,1.5-0.1,2.2-0.4c0.8-0.4,1.2-0.9,1.2-1.6v-0.2c-0.1-0.7-0.6-1.3-1.5-1.6
			c-0.4-0.1-1.1-0.2-2.3-0.4c-1.4-0.3-2.7-0.6-3.6-1.1c-2.9-1.2-4.4-3.4-4.4-6.6c0-3,1.5-5.3,4.5-6.8c1.3-0.7,2.7-1,4.3-1.1
			c1.6,0,3.3,0.2,5,0.8c2,0.7,3.4,1.6,4.2,2.6l-4.3,3.9c-1.1-1.2-2.3-1.7-3.6-1.7c-2,0-3.1,0.7-3.1,2v0.1c0,0.6,0.8,1.2,2.5,1.6
			c0.1,0,1.2,0.2,3.2,0.6c4,0.8,6,3.2,6,7.4V35.5z"/>
		<path class="st8" d="M294.7,30.7c0,3.6-1.2,6.6-3.7,9.1c-2.5,2.5-5.5,3.7-9.1,3.7c-3.6,0-6.7-1.2-9.1-3.7
			c-2.5-2.5-3.7-5.5-3.7-9.1c0-3.6,1.2-6.6,3.7-9.1c2.5-2.5,5.5-3.7,9.1-3.7c3.6,0,6.6,1.2,9.1,3.7
			C293.5,24.1,294.7,27.1,294.7,30.7z M288.3,30.7c0-1.7-0.6-3.2-1.9-4.4c-1.2-1.2-2.7-1.9-4.5-1.9c-1.8,0-3.3,0.6-4.5,1.8
			c-1.2,1.2-1.9,2.7-1.9,4.5s0.6,3.2,1.9,4.5c1.2,1.2,2.8,1.9,4.5,1.9c1.8,0,3.3-0.6,4.5-1.9C287.6,34,288.3,32.5,288.3,30.7z"/>
		<path class="st8" d="M342,42.8h-6.5V30.7c0-1.8-0.6-3.2-1.8-4.5c-1.2-1.2-2.7-1.8-4.5-1.8c-2.4,0-4.2,1-5.4,3v0v15.4h-6.5V30.7
			c0-1.7-0.6-3.2-1.9-4.4c-1.3-1.2-2.7-1.9-4.5-1.9c-1.8,0-3.3,0.6-4.5,1.8c-1.3,1.2-1.9,2.7-1.9,4.5v12.1h-6.5V30.7
			c0-3.6,1.2-6.6,3.7-9.1c2.5-2.5,5.5-3.7,9.1-3.7c3.6,0,6.6,1.3,9.1,3.8c2.5-2.5,5.6-3.8,9.1-3.8c3.6,0,6.6,1.2,9.1,3.7
			c2.5,2.5,3.7,5.5,3.7,9.1V42.8z"/>
		<path class="st8" d="M371,30.7c0,0.6,0,1.3-0.1,1.9h-18.8c0.4,1.3,1.2,2.4,2.3,3.2c1.1,0.8,2.4,1.2,3.8,1.2c2,0,3.6-0.8,4.8-2.3
			L367,40c-2.5,2.3-5.4,3.5-8.8,3.5c-3.6,0-6.7-1.2-9.1-3.7c-2.5-2.5-3.7-5.5-3.7-9.1c0-3.6,1.2-6.6,3.7-9.1
			c2.5-2.5,5.5-3.7,9.1-3.7c3.6,0,6.6,1.2,9.1,3.7C369.8,24.1,371,27.1,371,30.7z M363.8,27.8c-1.2-2.2-3-3.4-5.6-3.4
			c-2.6,0-4.4,1.1-5.6,3.4H363.8z"/>
	</g>
	<text transform="matrix(1 0 0 1 135.1293 85.9215)" class="st9 st10 st11">profile-cards</text>
	<text transform="matrix(1 0 0 1 135.129 42.8217)" class="st9 st10 st11">awesome</text>
</g>
<g class="st7">
	<path class="st12" d="M164.1,73.8c0,3.6-1.2,6.6-3.7,9.1c-2.5,2.5-5.5,3.7-9.1,3.7c-2.3,0-4.4-0.6-6.4-1.7v14.7h-6.5V73.8
		c0-3.6,1.2-6.7,3.7-9.1c2.5-2.5,5.5-3.7,9.1-3.7c3.6,0,6.6,1.2,9.1,3.7C162.9,67.2,164.1,70.2,164.1,73.8z M157.6,73.8
		c0-1.8-0.6-3.3-1.8-4.5c-1.2-1.2-2.7-1.8-4.5-1.8c-1.8,0-3.3,0.6-4.5,1.8s-1.9,2.7-1.9,4.5c0,1.8,0.6,3.3,1.9,4.5s2.8,1.8,4.5,1.8
		c1.8,0,3.3-0.6,4.5-1.8C157,77.1,157.6,75.6,157.6,73.8z"/>
	<path class="st12" d="M180.3,67.5c-1.8,0-3.3,0.6-4.5,1.8s-1.9,2.7-1.9,4.5v12.1h-6.5V73.8c0-3.6,1.2-6.6,3.7-9.1
		c2.5-2.5,5.5-3.7,9.1-3.7V67.5z"/>
	<path class="st12" d="M209.2,73.8c0,3.6-1.2,6.6-3.7,9.1c-2.5,2.5-5.5,3.7-9.1,3.7c-3.6,0-6.7-1.2-9.1-3.7
		c-2.5-2.5-3.7-5.5-3.7-9.1c0-3.6,1.2-6.6,3.7-9.1c2.5-2.5,5.5-3.7,9.1-3.7c3.6,0,6.6,1.2,9.1,3.7C207.9,67.2,209.2,70.2,209.2,73.8
		z M202.7,73.8c0-1.7-0.6-3.2-1.9-4.4c-1.2-1.2-2.7-1.9-4.5-1.9c-1.8,0-3.3,0.6-4.5,1.8s-1.9,2.7-1.9,4.5s0.6,3.2,1.9,4.5
		s2.8,1.9,4.5,1.9c1.8,0,3.3-0.6,4.5-1.9C202.1,77.1,202.7,75.6,202.7,73.8z"/>
	<path class="st12" d="M225.4,76.4H219v9.5h-6.5V60.8c0-3.6,1.2-6.7,3.7-9.1c2.5-2.5,5.5-3.7,9.1-3.7v6.5c-1.8,0-3.3,0.6-4.5,1.9
		c-1.2,1.2-1.9,2.7-1.9,4.5v10.1h6.4V76.4z"/>
	<path class="st12" d="M235.7,55.5c0,1.1-0.4,2-1.1,2.8c-0.7,0.8-1.6,1.1-2.7,1.1s-2-0.4-2.8-1.1c-0.8-0.8-1.1-1.7-1.1-2.8
		c0-1.1,0.4-2,1.1-2.7c0.8-0.7,1.7-1.1,2.8-1.1c1.1,0,2,0.4,2.7,1.1C235.3,53.5,235.7,54.4,235.7,55.5z M235.1,85.9h-6.5V61h6.5
		V85.9z"/>
	<path class="st12" d="M244.9,85.9h-6.5V48h6.5V85.9z"/>
	<path class="st12" d="M273.9,73.8c0,0.6,0,1.3-0.1,1.9H255c0.4,1.3,1.2,2.4,2.3,3.2c1.1,0.8,2.4,1.2,3.8,1.2c2,0,3.6-0.8,4.8-2.3
		l3.9,5.2c-2.5,2.3-5.4,3.5-8.8,3.5c-3.6,0-6.7-1.2-9.1-3.7c-2.5-2.5-3.7-5.5-3.7-9.1c0-3.6,1.2-6.6,3.7-9.1
		c2.5-2.5,5.5-3.7,9.1-3.7c3.6,0,6.6,1.2,9.1,3.7C272.6,67.2,273.9,70.2,273.9,73.8z M266.6,70.9c-1.2-2.2-3-3.4-5.6-3.4
		c-2.6,0-4.4,1.1-5.6,3.4H266.6z"/>
	<path class="st12" d="M285,67c0,1.1-0.4,2-1.1,2.8c-0.7,0.8-1.6,1.1-2.7,1.1c-1.1,0-2-0.4-2.8-1.1c-0.8-0.8-1.1-1.7-1.1-2.8
		c0-1.1,0.4-2,1.1-2.7c0.8-0.7,1.7-1.1,2.8-1.1c1.1,0,2,0.4,2.7,1.1C284.6,65,285,65.9,285,67z"/>
	<path class="st12" d="M310.1,83c-2.5,2.4-5.5,3.6-8.9,3.6c-3.6,0-6.7-1.2-9.1-3.7s-3.7-5.5-3.7-9.1c0-3.6,1.2-6.6,3.7-9.1
		c2.5-2.5,5.5-3.7,9.1-3.7c3.3,0,6.1,1.1,8.5,3.3l-3.9,5.2c-1.2-1.3-2.8-2-4.7-2c-1.8,0-3.3,0.6-4.5,1.8c-1.2,1.2-1.9,2.7-1.9,4.5
		s0.6,3.2,1.9,4.5c1.2,1.2,2.8,1.9,4.5,1.9c1.9,0,3.5-0.7,4.8-2.2L310.1,83z"/>
	<path class="st12" d="M344.2,85.9h-6.9l-1.4-3.7c-2.6,3-5.8,4.5-9.8,4.5c-3.6,0-6.6-1.2-9.1-3.7c-2.5-2.5-3.7-5.5-3.7-9.1
		c0-2.7,0.8-5.2,2.3-7.4c1.5-2.2,3.6-3.8,6.1-4.7c1.5-0.5,3-0.8,4.4-0.8c2.7,0,5.2,0.8,7.4,2.3c2.2,1.6,3.8,3.6,4.7,6.2L344.2,85.9z
		 M332.5,73.9c0-2.2-0.9-4-2.7-5.2c-1.1-0.7-2.3-1.1-3.6-1.1c-2.2,0-4,0.9-5.2,2.7c-0.8,1.1-1.2,2.3-1.2,3.7c0,2.2,0.9,3.9,2.7,5.2
		c1.1,0.8,2.3,1.2,3.6,1.2c1.8,0,3.3-0.6,4.5-1.9C331.9,77.1,332.5,75.6,332.5,73.9z"/>
	<path class="st12" d="M360.4,67.5c-1.8,0-3.3,0.6-4.5,1.8c-1.2,1.2-1.9,2.7-1.9,4.5v12.1h-6.5V73.8c0-3.6,1.2-6.6,3.7-9.1
		c2.5-2.5,5.5-3.7,9.1-3.7V67.5z"/>
	<path class="st12" d="M389.3,73.8c0,3.6-1.2,6.6-3.7,9.1c-2.5,2.5-5.5,3.7-9.1,3.7c-3.6,0-6.7-1.2-9.1-3.7s-3.7-5.5-3.7-9.1
		c0-3.6,1.2-6.6,3.7-9.1c2.5-2.5,5.5-3.7,9.1-3.7c2.3,0,4.4,0.5,6.3,1.6V48h6.5V73.8z M382.8,73.8c0-1.7-0.6-3.2-1.9-4.4
		c-1.2-1.2-2.7-1.9-4.5-1.9c-1.8,0-3.3,0.6-4.5,1.8c-1.2,1.2-1.9,2.7-1.9,4.5s0.6,3.2,1.9,4.5c1.2,1.2,2.8,1.9,4.5,1.9
		s3.3-0.6,4.5-1.9S382.8,75.6,382.8,73.8z"/>
	<path class="st12" d="M412.1,78.6c0,1.5-0.5,2.9-1.5,4.2c-2,2.5-5,3.7-8.7,3.6c-1.5,0-3.1-0.4-4.9-1c-1.8-0.6-3.2-1.4-4.3-2.4
		l3.6-4.7c1.7,1.6,3.6,2.4,5.5,2.4h0.1c0.8,0,1.5-0.1,2.2-0.4c0.8-0.4,1.2-0.9,1.2-1.6v-0.2c-0.1-0.7-0.6-1.3-1.5-1.6
		c-0.4-0.1-1.1-0.2-2.3-0.4c-1.4-0.3-2.7-0.6-3.6-1.1c-2.9-1.2-4.4-3.4-4.4-6.6c0-3,1.5-5.3,4.5-6.8c1.3-0.7,2.7-1,4.3-1.1
		c1.6,0,3.3,0.2,5,0.8c2,0.7,3.4,1.6,4.2,2.6l-4.3,3.9c-1.1-1.2-2.3-1.7-3.6-1.7c-2,0-3.1,0.7-3.1,2v0.1c0,0.6,0.8,1.2,2.5,1.6
		c0.1,0,1.2,0.2,3.2,0.6c4,0.8,6,3.2,6,7.4V78.6z"/>
</g>
<g class="st7">
	<path class="st12" d="M169.3,42.8h-6.9l-1.4-3.7c-2.6,3-5.8,4.5-9.8,4.5c-3.6,0-6.6-1.2-9.1-3.7s-3.7-5.5-3.7-9.1
		c0-2.7,0.8-5.2,2.3-7.4c1.5-2.2,3.6-3.8,6.1-4.7c1.5-0.5,3-0.8,4.4-0.8c2.7,0,5.2,0.8,7.4,2.3c2.2,1.6,3.8,3.6,4.7,6.2L169.3,42.8z
		 M157.7,30.8c0-2.2-0.9-4-2.7-5.2c-1.1-0.7-2.3-1.1-3.6-1.1c-2.2,0-4,0.9-5.2,2.7c-0.8,1.1-1.2,2.3-1.2,3.7c0,2.2,0.9,3.9,2.7,5.2
		c1.1,0.8,2.3,1.2,3.6,1.2c1.8,0,3.3-0.6,4.5-1.9S157.7,32.5,157.7,30.8z"/>
	<path class="st12" d="M216.6,30.7c0,3.6-1.2,6.7-3.7,9.1s-5.5,3.7-9.1,3.7c-3.6,0-6.6-1.3-9.1-3.8c-2.5,2.6-5.6,3.8-9.1,3.8
		c-3.6,0-6.7-1.2-9.1-3.7c-2.5-2.5-3.7-5.5-3.7-9.1V17.9h6.5v12.8c0,1.8,0.6,3.3,1.9,4.5c1.3,1.2,2.8,1.9,4.5,1.9
		c1.8,0,3.3-0.6,4.5-1.9c1.2-1.2,1.9-2.8,1.9-4.5V17.9h6.5V34c1.2,2,3.1,3.1,5.4,3.1c1.8,0,3.3-0.6,4.5-1.9c1.2-1.2,1.8-2.8,1.8-4.5
		V17.9h6.5V30.7z"/>
	<path class="st12" d="M245.6,30.7c0,0.6,0,1.3-0.1,1.9h-18.8c0.4,1.3,1.2,2.4,2.3,3.2c1.1,0.8,2.4,1.2,3.8,1.2c2,0,3.6-0.8,4.8-2.3
		l3.9,5.2c-2.5,2.3-5.4,3.5-8.8,3.5c-3.6,0-6.7-1.2-9.1-3.7c-2.5-2.5-3.7-5.5-3.7-9.1c0-3.6,1.2-6.6,3.7-9.1
		c2.5-2.5,5.5-3.7,9.1-3.7c3.6,0,6.6,1.2,9.1,3.7C244.4,24.1,245.6,27.1,245.6,30.7z M238.4,27.8c-1.2-2.2-3-3.4-5.6-3.4
		c-2.6,0-4.4,1.1-5.6,3.4H238.4z"/>
	<path class="st12" d="M268.5,35.5c0,1.5-0.5,2.9-1.5,4.2c-2,2.5-5,3.7-8.7,3.6c-1.5,0-3.1-0.4-4.9-1c-1.8-0.6-3.2-1.4-4.3-2.4
		l3.6-4.7c1.7,1.6,3.6,2.4,5.5,2.4h0.1c0.8,0,1.5-0.1,2.2-0.4c0.8-0.4,1.2-0.9,1.2-1.6v-0.2c-0.1-0.7-0.6-1.3-1.5-1.6
		c-0.4-0.1-1.1-0.2-2.3-0.4c-1.4-0.3-2.7-0.6-3.6-1.1c-2.9-1.2-4.4-3.4-4.4-6.6c0-3,1.5-5.3,4.5-6.8c1.3-0.7,2.7-1,4.3-1.1
		c1.6,0,3.3,0.2,5,0.8c2,0.7,3.4,1.6,4.2,2.6l-4.3,3.9c-1.1-1.2-2.3-1.7-3.6-1.7c-2,0-3.1,0.7-3.1,2v0.1c0,0.6,0.8,1.2,2.5,1.6
		c0.1,0,1.2,0.2,3.2,0.6c4,0.8,6,3.2,6,7.4V35.5z"/>
	<path class="st12" d="M297.5,30.7c0,3.6-1.2,6.6-3.7,9.1c-2.5,2.5-5.5,3.7-9.1,3.7c-3.6,0-6.7-1.2-9.1-3.7
		c-2.5-2.5-3.7-5.5-3.7-9.1c0-3.6,1.2-6.6,3.7-9.1c2.5-2.5,5.5-3.7,9.1-3.7c3.6,0,6.6,1.2,9.1,3.7C296.2,24.1,297.5,27.1,297.5,30.7
		z M291,30.7c0-1.7-0.6-3.2-1.9-4.4c-1.2-1.2-2.7-1.9-4.5-1.9c-1.8,0-3.3,0.6-4.5,1.8c-1.2,1.2-1.9,2.7-1.9,4.5s0.6,3.2,1.9,4.5
		c1.2,1.2,2.8,1.9,4.5,1.9c1.8,0,3.3-0.6,4.5-1.9C290.4,34,291,32.5,291,30.7z"/>
	<path class="st12" d="M344.8,42.8h-6.5V30.7c0-1.8-0.6-3.2-1.8-4.5c-1.2-1.2-2.7-1.8-4.5-1.8c-2.4,0-4.2,1-5.4,3v0v15.4h-6.5V30.7
		c0-1.7-0.6-3.2-1.9-4.4c-1.3-1.2-2.7-1.9-4.5-1.9c-1.8,0-3.3,0.6-4.5,1.8c-1.3,1.2-1.9,2.7-1.9,4.5v12.1h-6.5V30.7
		c0-3.6,1.2-6.6,3.7-9.1c2.5-2.5,5.5-3.7,9.1-3.7c3.6,0,6.6,1.3,9.1,3.8c2.5-2.5,5.6-3.8,9.1-3.8c3.6,0,6.6,1.2,9.1,3.7
		c2.5,2.5,3.7,5.5,3.7,9.1V42.8z"/>
	<path class="st12" d="M373.8,30.7c0,0.6,0,1.3-0.1,1.9h-18.8c0.4,1.3,1.2,2.4,2.3,3.2c1.1,0.8,2.4,1.2,3.8,1.2c2,0,3.6-0.8,4.8-2.3
		l3.9,5.2c-2.5,2.3-5.4,3.5-8.8,3.5c-3.6,0-6.7-1.2-9.1-3.7c-2.5-2.5-3.7-5.5-3.7-9.1c0-3.6,1.2-6.6,3.7-9.1
		c2.5-2.5,5.5-3.7,9.1-3.7c3.6,0,6.6,1.2,9.1,3.7C372.5,24.1,373.8,27.1,373.8,30.7z M366.5,27.8c-1.2-2.2-3-3.4-5.6-3.4
		c-2.6,0-4.4,1.1-5.6,3.4H366.5z"/>
</g>
</svg>
